# xmcd CD database file
#
# Track frame offsets:
#	150
#	14466
#	31663
#	49215
#
# Disc length: 843 seconds
#
# Revision: 0
# Processed by: cddbd v1.5.1PL2 Copyright (c) Steve Scherf et al.
# Submitted via: CDex 1.51
#
DISCID=27034904
DTITLE=Adam Hood - 6th Street EP
DYEAR=1900
DGENRE=Blues
TTITLE0=Tuesday Night
TTITLE1=Million Miles Away
TTITLE2=Coffee Song
TTITLE3=Play Something We Know
EXTD=
EXTT0=
EXTT1=
EXTT2=
EXTT3=
PLAYORDER=
